{"title":"Warcraft (2016) HDRip XviD-MAXSPEED","uid":15481785,"size":2037368121,"categoryP":"video","categoryS":"movies","magnet":"?xt=urn:btih:8da95a3ab6071929f9cb6da2d68cb7b2db7d2aff&amp;dn=Warcraft+%282016%29+HDRip+XviD-MAXSPEED&amp;tr=udp%3A%2F%2Ftracker.leechers-paradise.org%3A6969&amp;tr=udp%3A%2F%2Fzer0day.ch%3A1337&amp;tr=udp%3A%2F%2Fopen.demonii.com%3A1337&amp;tr=udp%3A%2F%2Ftracker.coppersurfer.tk%3A6969&amp;tr=udp%3A%2F%2Fexodus.desync.com%3A6969","seeders":27,"leechers":8,"uploader":"extremezone","files":4,"time":1470264498,"description":"http://extraimago.com/images/2016/08/03/7b151be2057db96fa068f51b3ef46f97.jpg\r\n\r\nScreens:\r\n \nhttp://extraimago.com/images/2016/08/03/9d1c9b294d64c9a60ec5ee64f5679b0a.jpg \nhttp://extraimago.com/images/2016/08/03/ddb8b0523c17df08cc15868a40c52978.jpg \nhttp://extraimago.com/images/2016/08/03/d52e13ff30accc6f6ef1414352b19026.jpg\r\n\r\nScreenCaps:\r\n \nhttp://extraimago.com/images/2016/08/03/d78ba9b7f1da96b7dd1846fc82c71b84.jpg\r\n\r\nWarcraft (2016) HDRip XviD-MAXSPEED\r\nFormat                                   : AVI\r\nFormat/Info                              : Audio Video Interleave\r\nFormat profile                           : OpenDML\r\nFormat settings                          : rec\r\nFile size                                : 1.88 GiB\r\nDuration                                 : 2h 3mn\r\nOverall bit rate                         : 2 189 Kbps\r\nWriting application                      : VirtualDubMod 1.5.10.2 (build 2542/release)\r\nWriting library                          : VirtualDubMod build 2542/release\r\nOriginal source form                     : MAX TORRENTZ\r\nCopyright                                : SIGISMUNT\r\n\r\nVideo\r\nID                                       : 0\r\nFormat                                   : MPEG-4 Visual\r\nFormat profile                           : Advanced   \r\nFormat settings, BVOP                    : 2\r\nFormat settings, QPel                    : No\r\nFormat settings, GMC                     : No warppoints\r\nFormat settings, Matrix                  : Default (MPEG)\r\nCodec ID                                 : XVID\r\nCodec ID/Hint                            : XviD\r\nDuration                                 : 2h 3mn\r\nBit rate                                 : 1 992 Kbps\r\nWidth                                    : 720 pixels\r\nHeight                                   : 288 pixels\r\nDisplay aspect ratio                     : 2.500\r\nFrame rate                               : 23.976 fps\r\nColor space                              : YUV\r\nChroma subsampling                       : 4:2:0\r\nBit depth                                : 8 bits\r\nScan type                                : Progressive\r\nCompression mode                         : Lossy\r\nBits/(Pixel*Frame)                       : 0.401\r\nStream size                              : 1.71 GiB (91%)\r\nWriting library                          : XviD 1.2.1 (UTC 2008-12-04)\r\n\r\nAudio\r\nID                                       : 1\r\nFormat                                   : AC-3\r\nFormat/Info                              : Audio Coding 3\r\nMode extension                           : CM (complete main)\r\nFormat settings, Endianness              : Big\r\nCodec ID                                 : 2000\r\nDuration                                 : 2h 3mn\r\nBit rate mode                            : Constant\r\nBit rate                                 : 192 Kbps\r\nChannel(s)                               : 2 channels\r\nChannel positions                        : Front: L R\r\nSampling rate                            : 48.0 KHz\r\nBit depth                                : 16 bits\r\nCompression mode                         : Lossy\r\nStream size                              : 169 MiB (9%)\r\nAlignment                                : Aligned on interleaves\r\nInterleave, duration                     : 64 ms (1.53 video frames)\r\nInterleave, preload duration             : 192 ms\r\n\r\nSource: WEBDL HD (clean encode/source, perfect a/v/sync quality,sample included)\r\nThis torrent is not seedbox supported,please seed it to the MAX\r\n\r\nUploader Note: If you think image it's a little dark on your device then\r\nVLC-&gt;Ctrl+E-&gt;Video Effects-&gt;Image adjust-&gt;Brightness-&gt;Close, simple as 1,2,3\r\nso no more complaints about this please,thank you\r\n\r\nNote: If you have something as early releases, seedboxes  http://torentz.3xforum.ro","torrent":{"xt":"urn:btih:8da95a3ab6071929f9cb6da2d68cb7b2db7d2aff","amp;dn":"Warcraft+%282016%29+HDRip+XviD-MAXSPEED","amp;tr":["udp%3A%2F%2Ftracker.leechers-paradise.org%3A6969","udp%3A%2F%2Fzer0day.ch%3A1337","udp%3A%2F%2Fopen.demonii.com%3A1337","udp%3A%2F%2Ftracker.coppersurfer.tk%3A6969","udp%3A%2F%2Fexodus.desync.com%3A6969"],"infoHash":"8da95a3ab6071929f9cb6da2d68cb7b2db7d2aff","infoHashBuffer":{"type":"Buffer","data":[141,169,90,58,182,7,25,41,249,203,109,162,214,140,183,178,219,125,42,255]},"announce":[],"urlList":[]}}